<svg width="199" height="266" viewBox="0 0 199 266" fill="none" xmlns="http://www.w3.org/2000/svg">
<path fill-rule="evenodd" clip-rule="evenodd" d="M150.336 88.032C161.597 94.8195 172.662 98.099 177.856 96.7602C190.88 93.4031 192.077 45.7574 182 26.974C171.923 8.19056 120.117 0.00352287 117.506 37.2195C116.599 50.1361 122.023 61.6632 130.036 71.0692L115.668 138.039H157.405L150.336 88.032Z" fill="#DDDDDD"/>
<path fill-rule="evenodd" clip-rule="evenodd" d="M126.398 78.3203C121.293 55.7634 106.75 40.3871 108.971 30.3051C111.192 20.2231 120.811 17.7658 120.811 17.7658C120.811 17.7658 125.785 -2.22234 152.899 0.762329C180.012 3.747 196.561 14.9306 189.415 39.5395C182.845 39.5395 174.915 37.1798 163.948 41.2227C158.729 43.1469 156.482 53.157 156.482 53.157H151.526C151.526 53.157 144.312 41.2778 137.299 44.4264C130.287 47.575 134.111 59.7225 134.111 59.7225L131.67 78.3203H126.398Z" fill="#A9A9A9"/>
<path d="M109.898 103.758C111.014 97.2247 117.214 92.833 123.747 93.9485L155.413 99.3554C161.668 100.423 166.01 106.176 165.323 112.484L162.493 138.447C162.227 140.888 159.846 142.515 157.475 141.876L109.285 128.875C107.293 128.338 106.036 126.374 106.384 124.34L109.898 103.758Z" fill="#D2D2D2"/>
<path fill-rule="evenodd" clip-rule="evenodd" d="M159.766 126.292L144.516 126.753C139.85 159.942 147.323 194.797 159.8 226.668C172.448 220.133 185.141 213.695 198.101 208.175C179.229 183.071 163.751 155.409 159.766 126.292Z" fill="#C4C4C4"/>
<path fill-rule="evenodd" clip-rule="evenodd" d="M179.757 216.591C171.428 220.644 163.169 224.921 154.916 229.195C123.1 245.673 91.3836 262.099 56.2188 265.401C63.9135 204.449 94.7153 136.751 118.284 102.791L162.882 110.685C160.173 157.758 168.896 190.932 179.757 216.591Z" fill="#D2D2D2"/>
<path fill-rule="evenodd" clip-rule="evenodd" d="M0.0341797 258.742C36.7731 149.411 114.184 102.791 114.184 102.791L125.48 112.833C125.48 112.833 94.754 194.052 70.9993 263.238C48.889 267.604 25.552 267.277 0.0341797 258.742Z" fill="#D2D2D2"/>
<path fill-rule="evenodd" clip-rule="evenodd" d="M72.089 263.019L75.8751 239.382C72.6495 245.328 67.9184 254.681 63.5742 264.516C66.4336 264.097 69.2712 263.596 72.089 263.019Z" fill="#C4C4C4"/>
</svg>
